<?xml version="1.0" encoding="UTF-8" standalone="no"?>
<!-- Created with Inkscape (http://www.inkscape.org/) -->

<svg
   version="1.1"
   id="svg1"
   width="1024"
   height="1024"
   viewBox="0 0 1024 1024"
   xmlns="http://www.w3.org/2000/svg"
   xmlns:svg="http://www.w3.org/2000/svg">
  <defs
     id="defs1" />
  <g
     id="layer1"
     style="display:none">
    <path
       style="fill:none;stroke:#050505;stroke-width:1;stroke-dasharray:none;stroke-dashoffset:0;stroke-opacity:1"
       d="M 515.88174,129.71587 870.9338,672.93813 160.2347,674.12647 Z"
       id="path1" />
    <path
       style="fill:none;stroke:#050505;stroke-width:1;stroke-dasharray:none;stroke-dashoffset:0;stroke-opacity:1"
       d="M 623.35381,294.21947 561.38265,243.32728"
       id="path13" />
    <path
       style="fill:none;stroke:#050505;stroke-width:1;stroke-dasharray:none;stroke-dashoffset:0;stroke-opacity:1"
       d="m 596.24538,340.51394 -34.74712,-96.7743"
       id="path14" />
    <path
       style="fill:none;stroke:#050505;stroke-width:1;stroke-dasharray:none;stroke-dashoffset:0;stroke-opacity:1"
       d="m 425.01343,276.44691 83.4774,82.4322 4.57279,135.11326"
       id="path17" />
    <path
       style="fill:none;stroke:#050505;stroke-width:1;stroke-dasharray:none;stroke-dashoffset:0;stroke-opacity:1"
       d="M 508.52598,358.90483 561.45837,243.11599"
       id="path18" />
    <path
       style="fill:none;stroke:#050505;stroke-width:1;stroke-dasharray:none;stroke-dashoffset:0;stroke-opacity:1"
       d="m 510.31252,243.38964 0.3893,28.93508"
       id="path19" />
    <path
       style="fill:none;stroke:#050505;stroke-width:1;stroke-dasharray:none;stroke-dashoffset:0;stroke-opacity:1"
       d="M 413.19519,286.66383 360.29442,232.90451"
       id="path20" />
    <path
       style="fill:none;stroke:#050505;stroke-width:1;stroke-dasharray:none;stroke-dashoffset:0;stroke-opacity:1"
       d="m 373.75076,155.3358 45.09725,123.02081"
       id="path21" />
    <path
       style="fill:none;stroke:#050505;stroke-width:1;stroke-dasharray:none;stroke-dashoffset:0;stroke-opacity:1"
       d="M 657.86608,154.1018 605.69004,267.29875"
       id="path22" />
    <path
       style="fill:none;stroke:#050505;stroke-width:1;stroke-dasharray:none;stroke-dashoffset:0;stroke-opacity:1"
       d="m 617.17899,284.65494 53.4595,-48.65673"
       id="path23" />
    <path
       style="fill:none;stroke:#050505;stroke-width:1;stroke-dasharray:none;stroke-dashoffset:0;stroke-opacity:1"
       d="M 519.4181,673.47416 366.90304,485.92223"
       id="path24" />
    <path
       style="fill:none;stroke:#050505;stroke-width:1;stroke-dasharray:none;stroke-dashoffset:0;stroke-opacity:1"
       d="m 411.32919,601.50025 -9.61906,-72.81691"
       id="path25" />
    <path
       style="fill:none;stroke:#050505;stroke-width:1;stroke-dasharray:none;stroke-dashoffset:0;stroke-opacity:1"
       d="M 261.79657,635.87569 370.54924,559.51743"
       id="path26" />
    <path
       style="fill:none;stroke:#050505;stroke-width:1;stroke-dasharray:none;stroke-dashoffset:0;stroke-opacity:1"
       d="m 303.8722,454.28272 90.44354,-48.96004 41.64784,54.43966 9.37076,66.78528 41.09803,43.9249"
       id="path27" />
    <path
       style="fill:none;stroke:#050505;stroke-width:1;stroke-dasharray:none;stroke-dashoffset:0;stroke-opacity:1"
       d="m 485.78297,570.74888 57.57252,-0.17355 34.95444,-46.1101 -31.08714,-107.54066 18.62749,-41.63105 31.29413,-0.59316 18.26549,-9.57832"
       id="path28" />
    <path
       style="fill:none;stroke:#050505;stroke-width:1;stroke-dasharray:none;stroke-dashoffset:0;stroke-opacity:1"
       d="m 556.27299,396.86491 28.23402,-0.0155 12.61803,-22.15575"
       id="path29" />
    <path
       style="fill:none;stroke:#050505;stroke-width:1;stroke-dasharray:none;stroke-dashoffset:0;stroke-opacity:1"
       d="m 405.0179,356.74696 37.94023,39.40947 26.25063,0.2658 -14.1161,-21.08948 -33.2735,-0.0671"
       id="path31" />
    <path
       style="fill:none;stroke:#050505;stroke-width:1;stroke-dasharray:none;stroke-dashoffset:0;stroke-opacity:1"
       d="m 396.10065,404.13274 25.87343,-28.84518"
       id="path32" />
    <path
       style="fill:none;stroke:#050505;stroke-width:1;stroke-dasharray:none;stroke-dashoffset:0;stroke-opacity:1"
       d="m 468.75605,396.75528 15.5286,21.41786 -39.6516,103.28348"
       id="path33" />
    <path
       style="fill:none;stroke:#050505;stroke-width:1;stroke-dasharray:none;stroke-dashoffset:0;stroke-opacity:1"
       d="m 559.23618,549.44676 -92.63435,-0.30238"
       id="path34" />
    <path
       style="fill:none;stroke:#050505;stroke-width:1;stroke-dasharray:none;stroke-dashoffset:0;stroke-opacity:1"
       d="m 484.51893,493.07985 60.68991,0.87191 -28.98836,52.16938 z"
       id="path35" />
    <path
       style="fill:none;stroke:#050505;stroke-width:1;stroke-dasharray:none;stroke-dashoffset:0;stroke-opacity:1"
       d="m 326.65867,509.35983 2.97685,-68.8498"
       id="path36" />
    <path
       style="fill:none;stroke:#050505;stroke-width:1;stroke-dasharray:none;stroke-dashoffset:0;stroke-opacity:1"
       d="M 328.94352,415.47434 267.21548,371.85567"
       id="path37" />
    <path
       style="display:inline;fill:none;stroke:#050505;stroke-width:1;stroke-dasharray:none;stroke-dashoffset:0;stroke-opacity:1"
       d="M 412.34798,288.21242 460.10197,242.7073"
       id="path16" />
    <path
       style="display:inline;fill:none;stroke:#050505;stroke-width:1;stroke-dasharray:none;stroke-dashoffset:0;stroke-opacity:1"
       d="m 344.70634,391.91586 59.88958,-35.12389 48.14698,-51.77703 108.85656,-61.53498"
       id="path15" />
    <path
       style="display:inline;fill:none;stroke:#050505;stroke-width:1;stroke-dasharray:none;stroke-dashoffset:0;stroke-opacity:1"
       d="m 371.96373,349.97049 -11.77014,-116.8578 13.3664,-78.28608 86.59802,87.91282 101.28756,0.59988 96.67011,-90.08742 12.92084,79.63584 -11.50995,115.85441"
       id="path3" />
    <path
       style="display:inline;fill:none;stroke:#050505;stroke-width:1;stroke-dasharray:none;stroke-dashoffset:0;stroke-opacity:1"
       d="M 568.11823,673.57568 837.80613,468.32815"
       id="path5" />
    <path
       style="display:inline;fill:none;stroke:#050505;stroke-width:1;stroke-dasharray:none;stroke-dashoffset:0;stroke-opacity:1"
       d="M 710.90988,428.00456 620.58585,371.30938 596.15062,340.32644"
       id="path12" />
    <path
       style="display:inline;fill:none;stroke:#050505;stroke-width:1;stroke-dasharray:none;stroke-dashoffset:0;stroke-opacity:1"
       d="m 524.76271,673.65372 50.86985,-122.86111 19.03901,-95.19505 50.57237,-69.01641"
       id="path11" />
    <path
       style="display:inline;fill:none;stroke:#050505;stroke-width:1;stroke-dasharray:none;stroke-dashoffset:0;stroke-opacity:1"
       d="m 711.66703,428.88633 -122.0434,52.73182"
       id="path10" />
    <path
       style="display:inline;fill:none;stroke:#050505;stroke-width:1;stroke-dasharray:none;stroke-dashoffset:0;stroke-opacity:1"
       d="M 529.58845,673.56143 669.93516,520.74667"
       id="path9" />
    <path
       style="display:inline;fill:none;stroke:#050505;stroke-width:1;stroke-dasharray:none;stroke-dashoffset:0;stroke-opacity:1"
       d="M 655.46998,604.52575 684.92095,440.61178"
       id="path8" />
    <path
       style="display:inline;fill:none;stroke:#050505;stroke-width:1;stroke-dasharray:none;stroke-dashoffset:0;stroke-opacity:1"
       d="m 476.69021,673.74085 -147.9698,-163.70362 95.49253,-63.06672 -6.84215,4.75975"
       id="path4" />
  </g>
  <g
     id="g70"
     style="display:inline">
    <path
       style="fill:none;stroke:#050505;stroke-width:5;stroke-dasharray:none;stroke-dashoffset:0;stroke-opacity:1"
       d="M 515.88174,129.71587 870.9338,672.93813 160.2347,674.12647 Z"
       id="path38" />
    <path
       style="fill:none;stroke:#050505;stroke-width:5;stroke-dasharray:none;stroke-dashoffset:0;stroke-opacity:1"
       d="M 623.35381,294.21947 561.38265,243.32728"
       id="path39" />
    <path
       style="fill:none;stroke:#050505;stroke-width:5;stroke-dasharray:none;stroke-dashoffset:0;stroke-opacity:1"
       d="m 596.24538,340.51394 -34.74712,-96.7743"
       id="path40" />
    <path
       style="fill:none;stroke:#050505;stroke-width:5;stroke-dasharray:none;stroke-dashoffset:0;stroke-opacity:1"
       d="m 425.01343,276.44691 83.4774,82.4322 4.57279,135.11326"
       id="path41" />
    <path
       style="fill:none;stroke:#050505;stroke-width:5;stroke-dasharray:none;stroke-dashoffset:0;stroke-opacity:1"
       d="M 508.52598,358.90483 561.45837,243.11599"
       id="path42" />
    <path
       style="fill:none;stroke:#050505;stroke-width:5;stroke-dasharray:none;stroke-dashoffset:0;stroke-opacity:1"
       d="m 510.31252,243.38964 0.3893,28.93508"
       id="path43" />
    <path
       style="fill:none;stroke:#050505;stroke-width:5;stroke-dasharray:none;stroke-dashoffset:0;stroke-opacity:1"
       d="M 413.19519,286.66383 360.29442,232.90451"
       id="path44" />
    <path
       style="fill:none;stroke:#050505;stroke-width:5;stroke-dasharray:none;stroke-dashoffset:0;stroke-opacity:1"
       d="m 373.75076,155.3358 45.09725,123.02081"
       id="path45" />
    <path
       style="fill:none;stroke:#050505;stroke-width:5;stroke-dasharray:none;stroke-dashoffset:0;stroke-opacity:1"
       d="M 657.86608,154.1018 605.69004,267.29875"
       id="path46" />
    <path
       style="fill:none;stroke:#050505;stroke-width:5;stroke-dasharray:none;stroke-dashoffset:0;stroke-opacity:1"
       d="m 617.17899,284.65494 53.64543,-52.00343"
       id="path47" />
    <path
       style="fill:none;stroke:#050505;stroke-width:5;stroke-dasharray:none;stroke-dashoffset:0;stroke-opacity:1"
       d="M 519.4181,673.47416 366.50529,485.25932"
       id="path48" />
    <path
       style="fill:none;stroke:#050505;stroke-width:5;stroke-dasharray:none;stroke-dashoffset:0;stroke-opacity:1"
       d="m 411.32919,601.50025 -9.61906,-72.81691"
       id="path49" />
    <path
       style="fill:none;stroke:#050505;stroke-width:5;stroke-dasharray:none;stroke-dashoffset:0;stroke-opacity:1"
       d="M 262.87933,634.15212 371.632,557.79386"
       id="path50" />
    <path
       style="fill:none;stroke:#050505;stroke-width:5;stroke-dasharray:none;stroke-dashoffset:0;stroke-opacity:1"
       d="m 303.8722,454.28272 90.44354,-48.96004 41.64784,54.43966 9.37076,66.78528 41.09803,43.9249"
       id="path51" />
    <path
       style="fill:none;stroke:#050505;stroke-width:5;stroke-dasharray:none;stroke-dashoffset:0;stroke-opacity:1"
       d="m 484.63392,569.865 58.72157,0.71033 34.95444,-46.1101 -31.08714,-107.54066 18.62749,-41.63105 31.29413,-0.59316 18.26549,-9.57832"
       id="path52" />
    <path
       style="fill:none;stroke:#050505;stroke-width:5;stroke-dasharray:none;stroke-dashoffset:0;stroke-opacity:1"
       d="m 556.27299,396.86491 28.23402,-0.0155 12.61803,-22.15575"
       id="path53" />
    <path
       style="fill:none;stroke:#050505;stroke-width:5;stroke-dasharray:none;stroke-dashoffset:0;stroke-opacity:1"
       d="m 405.0179,356.74696 37.94023,39.40947 26.25063,0.2658 -14.1161,-21.08948 -32.42975,-0.0593"
       id="path54" />
    <path
       style="fill:none;stroke:#050505;stroke-width:5;stroke-dasharray:none;stroke-dashoffset:0;stroke-opacity:1"
       d="m 394.65447,405.18451 28.13211,-29.9907"
       id="path55" />
    <path
       style="fill:none;stroke:#050505;stroke-width:5;stroke-dasharray:none;stroke-dashoffset:0;stroke-opacity:1"
       d="m 468.75605,396.75528 15.5286,21.41786 -39.6516,103.28348"
       id="path56" />
    <path
       style="fill:none;stroke:#050505;stroke-width:5;stroke-dasharray:none;stroke-dashoffset:0;stroke-opacity:1"
       d="m 559.23618,549.44676 -92.63435,-0.30238"
       id="path57" />
    <path
       style="fill:none;stroke:#050505;stroke-width:5;stroke-dasharray:none;stroke-dashoffset:0;stroke-opacity:1"
       d="m 484.51893,493.07985 60.68991,0.87191 -28.98836,52.16938 z"
       id="path58" />
    <path
       style="fill:none;stroke:#050505;stroke-width:5;stroke-dasharray:none;stroke-dashoffset:0;stroke-opacity:1"
       d="m 328.47063,509.96198 1.16489,-69.45195"
       id="path59" />
    <path
       style="fill:none;stroke:#050505;stroke-width:5;stroke-dasharray:none;stroke-dashoffset:0;stroke-opacity:1"
       d="M 328.94352,415.47434 267.21548,371.85567"
       id="path60" />
    <path
       style="display:inline;fill:none;stroke:#050505;stroke-width:5;stroke-dasharray:none;stroke-dashoffset:0;stroke-opacity:1"
       d="M 412.34798,288.21242 460.10197,242.7073"
       id="path61" />
    <path
       style="display:inline;fill:none;stroke:#050505;stroke-width:5;stroke-dasharray:none;stroke-dashoffset:0;stroke-opacity:1"
       d="m 344.70634,391.91586 59.88958,-35.12389 48.14698,-51.77703 108.85656,-61.53498"
       id="path62" />
    <path
       style="display:inline;fill:none;stroke:#050505;stroke-width:5;stroke-dasharray:none;stroke-dashoffset:0;stroke-opacity:1"
       d="m 371.96373,349.97049 -11.77014,-116.8578 13.3664,-78.28608 86.59802,87.91282 101.28756,0.59988 96.67011,-90.08742 12.92084,79.63584 -11.50995,116.33782"
       id="path63" />
    <path
       style="display:inline;fill:none;stroke:#050505;stroke-width:5;stroke-dasharray:none;stroke-dashoffset:0;stroke-opacity:1"
       d="M 568.11823,673.57568 837.80613,468.32815"
       id="path64" />
    <path
       style="display:inline;fill:none;stroke:#050505;stroke-width:5;stroke-dasharray:none;stroke-dashoffset:0;stroke-opacity:1"
       d="M 710.95636,428.56234 620.58585,371.30938 595.52562,339.32644"
       id="path65" />
    <path
       style="display:inline;fill:none;stroke:#050505;stroke-width:5;stroke-dasharray:none;stroke-dashoffset:0;stroke-opacity:1"
       d="m 524.76271,673.65372 50.86985,-122.86111 19.03901,-95.19505 50.57237,-69.01641"
       id="path66" />
    <path
       style="display:inline;fill:none;stroke:#050505;stroke-width:5;stroke-dasharray:none;stroke-dashoffset:0;stroke-opacity:1"
       d="m 711.66703,428.88633 -122.0434,52.73182"
       id="path67" />
    <path
       style="display:inline;fill:none;stroke:#050505;stroke-width:5;stroke-dasharray:none;stroke-dashoffset:0;stroke-opacity:1"
       d="M 529.58845,673.56143 670.93917,520.18889"
       id="path68" />
    <path
       style="display:inline;fill:none;stroke:#050505;stroke-width:5;stroke-dasharray:none;stroke-dashoffset:0;stroke-opacity:1"
       d="M 655.73292,606.86593 684.92095,440.61178"
       id="path69" />
    <path
       style="display:inline;fill:none;stroke:#050505;stroke-width:5;stroke-dasharray:none;stroke-dashoffset:0;stroke-opacity:1"
       d="m 476.69021,673.74085 -146.92967,-163.37013 94.4524,-63.40021 -6.88634,4.62717"
       id="path70" />
  </g>
</svg>
